<?xml version="1.0" encoding="UTF-8"?>
<svg version="1.1" xmlns="http://www.w3.org/2000/svg" width="500" height="500">
<path d="M0 0 C0.20244099 14.04856101 -0.49553126 28.04825439 -1.14550781 42.07836914 C-1.68085477 53.73855357 -2.11108812 65.39338133 -2.20703125 77.06640625 C-2.22262085 78.04713608 -2.23821045 79.02786591 -2.25427246 80.03831482 C-2.27388124 88.24980352 -0.4530909 94.52965124 3 102 C5.51556433 108.34209223 7.70212659 114.81116711 9.92578125 121.25976562 C10.96980731 124.9098852 10.96980731 124.9098852 13 128 C13.110158 98.74443434 13.07809026 69.50159525 12.5625 40.25 C12.54285187 39.06712402 12.52320374 37.88424805 12.50296021 36.66552734 C12.23967144 19.30831915 12.23967144 19.30831915 11 2 C14.7894763 0.73684123 17.39214535 1.58292172 21.125 2.5625 C21.8372876 2.748125 22.5495752 2.93375 23.28344727 3.125 C45.17374187 8.99630943 66.06740219 18.54883207 85 31 C87.00355008 32.26065494 89.01395512 33.5098776 91.02514648 34.75830078 C93.7399181 36.44441984 96.44657925 38.14331577 99.15332031 39.84228516 C100.82683903 40.89144245 102.50310738 41.93621062 104.1796875 42.98046875 C108.84707588 45.90889941 113.39904416 48.89645948 117.7578125 52.26953125 C119.56981937 53.66799648 121.39759953 55.03214913 123.2421875 56.38671875 C124.41165914 57.25754289 125.58092919 58.12863783 126.75 59 C127.3054248 59.40323486 127.86084961 59.80646973 128.43310547 60.22192383 C132.28250531 63.12149445 134.99150687 65.60067409 137 70 C137.45762812 74.61563874 137.32424487 79.1811516 137.1875 83.8125 C137.14594504 86.43744267 137.10816409 89.06244789 137.07421875 91.6875 C137.05536621 92.95078125 137.03651367 94.2140625 137.01708984 95.515625 C136.99027263 100.98327223 137.3560175 106.38298724 137.76261902 111.8318634 C138.01392293 115.70974765 138.01176229 119.55752268 137.96289062 123.4440918 C137.91759787 131.12722736 138.33913438 138.72780815 138.92597961 146.38572121 C139.10020518 148.66653712 139.26607463 150.94784146 139.43005371 153.22941589 C139.89678088 159.70480563 140.37689294 166.1791722 140.86376953 172.65307617 C146.70724798 250.61646798 146.70724798 250.61646798 134.33984375 270.6953125 C132.71729032 273.04198499 132.71729032 273.04198499 133 276.375 C133 280.56681179 132.3154674 283.54143061 130 287 C127.14908182 289.59901166 124.00308726 291.62595051 120.75 293.6875 C119.36554688 294.58662109 119.36554688 294.58662109 117.953125 295.50390625 C107.67790157 302.05021795 96.92323871 307.62664489 86 313 C85.31905273 313.3403125 84.63810547 313.680625 83.93652344 314.03125 C67.38381258 322.27650801 46.39615909 329.01196393 27.75 329.25 C26.52796875 329.27578125 25.3059375 329.3015625 24.046875 329.328125 C22.53867187 329.16570312 22.53867187 329.16570312 21 329 C17.42768702 323.64153053 17.87776029 318.234225 18 312 C18.66 312 19.32 312 20 312 C19.525625 310.845 19.05125 309.69 18.5625 308.5 C15.84930724 301.89396546 15.81913777 294.49189534 15.5 287.4375 C15.45939453 286.57398926 15.41878906 285.71047852 15.37695312 284.82080078 C14.87785895 273.37810694 14.64217826 261.92477135 14.39257812 250.47436523 C14.28453821 245.64880543 14.15132547 240.82438998 14 236 C13.97414825 235.14250153 13.94829651 234.28500305 13.92166138 233.40151978 C13.83781517 230.8229421 13.73607972 228.24567216 13.62890625 225.66796875 C13.60465576 224.88743134 13.58040527 224.10689392 13.55541992 223.30270386 C13.29659421 217.73924209 12.03076076 213.50567386 9.05859375 208.71484375 C8 207 8 207 8 205 C7.34 205 6.68 205 6 205 C5.75765625 204.33613281 5.5153125 203.67226563 5.265625 202.98828125 C3.38846341 198.04268244 1.66677907 193.92869187 -2 190 C-3.25133481 192.50266962 -3.12306118 194.18493776 -3.12025452 196.98599243 C-3.12162918 198.04051102 -3.12300385 199.0950296 -3.12442017 200.1815033 C-3.12082489 201.34315506 -3.11722961 202.50480682 -3.11352539 203.70166016 C-3.11374443 205.53089272 -3.11374443 205.53089272 -3.1139679 207.39707947 C-3.11338955 210.74605181 -3.10836546 214.09496293 -3.10139394 217.44392443 C-3.09515348 220.9419744 -3.09455605 224.44002515 -3.09336853 227.93807983 C-3.09025726 234.56434861 -3.08204662 241.19060094 -3.07201904 247.81686246 C-3.06085157 255.35968929 -3.05534585 262.9025169 -3.05032361 270.44534993 C-3.03986384 285.96357616 -3.02226834 301.48178596 -3 317 C-2.34 317 -1.68 317 -1 317 C0.09506492 320.28519475 0.09960608 322.73663415 0.0625 326.1875 C0.05347656 327.27417969 0.04445312 328.36085938 0.03515625 329.48046875 C0.01775391 330.72763672 0.01775391 330.72763672 0 332 C-11.23250375 337.61625188 -31.23028021 330.46981401 -42.27490234 326.95898438 C-54.93824459 322.65927749 -67.30044788 317.57597892 -79.5625 312.25 C-80.56651855 311.81478027 -81.57053711 311.37956055 -82.60498047 310.93115234 C-88.22909725 308.42743992 -93.50234386 305.62988741 -98.73803711 302.39257812 C-100.69687976 301.18661607 -102.66930755 300.04772662 -104.6875 298.9453125 C-111.14824101 295.39495246 -117.07479014 291.64608531 -122.73828125 286.890625 C-125.56303495 284.52934557 -128.51767155 282.37761285 -131.50390625 280.2265625 C-133 279 -133 279 -134 277 C-134.23561562 273.48072544 -134.39181382 269.96782724 -134.51757812 266.44335938 C-134.724718 261.82765771 -135.24713594 257.4116165 -136.05078125 252.859375 C-137.25472281 245.37371379 -137.07052175 238.11712306 -136.75 230.5625 C-136.69005859 228.60860352 -136.69005859 228.60860352 -136.62890625 226.61523438 C-136.13595872 213.23237501 -134.13906688 200.86704241 -130.53869629 187.98028564 C-129.0187626 182.39290196 -127.721249 176.74578761 -126.39013672 171.11108398 C-125.87414857 168.93390745 -125.34923093 166.75899994 -124.82421875 164.58398438 C-121.87213482 152.21029838 -119.61326174 139.96123184 -119.75 127.1875 C-119.75604248 126.25172119 -119.76208496 125.31594238 -119.76831055 124.35180664 C-119.99639617 108.11625706 -122.94053485 92.82604877 -127.44921875 77.2421875 C-128 75 -128 75 -128 72 C-129.65 72 -131.3 72 -133 72 C-133.13595863 70.58603027 -133.23243845 69.16823316 -133.3125 67.75 C-133.37050781 66.96109375 -133.42851562 66.1721875 -133.48828125 65.359375 C-132.75424002 61.81248779 -130.97777198 60.983877 -128 59 C-125.41445294 57.4448002 -122.77920214 55.99677474 -120.125 54.5625 C-118.51908655 53.68179999 -116.91364126 52.80024593 -115.30859375 51.91796875 C-114.45378418 51.4492334 -113.59897461 50.98049805 -112.71826172 50.49755859 C-107.85790045 47.8198636 -103.02123921 45.10038936 -98.1875 42.375 C-97.1965332 41.8171582 -96.20556641 41.25931641 -95.18457031 40.68457031 C-90.16267916 37.84303793 -85.22992122 34.92947277 -80.375 31.8125 C-74.03272098 27.81576342 -67.31498235 24.69953169 -60.50732422 21.5871582 C-56.49295552 19.73818676 -52.65979072 17.86378349 -48.953125 15.44921875 C-44.70573134 12.70774345 -40.26237222 10.83193448 -35.5625 9 C-34.2645752 8.48953125 -34.2645752 8.48953125 -32.94042969 7.96875 C-27.27085887 5.7796945 -21.56494714 3.76769163 -15.75 2 C-15.08427979 1.79246094 -14.41855957 1.58492187 -13.73266602 1.37109375 C-8.99381538 0.00364637 -4.8773397 -0.17341652 0 0 Z M65 73 C63.83017578 74.01513672 63.83017578 74.01513672 62.63671875 75.05078125 C58.05902197 79.23819482 56.4951768 81.78747191 56 88 C55.87662631 91.89807738 55.90137064 95.79181268 55.9296875 99.69140625 C55.94134219 102.21500532 55.9527162 104.73860569 55.96386719 107.26220703 C55.96762674 107.94466334 55.9713863 108.62711966 55.97525978 109.33025646 C56.0038196 114.92076708 55.98833192 120.5105645 55.96582031 126.10107422 C55.9348818 134.48119165 55.97073618 142.859216 56.05694962 151.2389431 C56.1047648 156.08798555 56.12620994 160.93424962 56.08935547 165.78344727 C55.50657428 196.25679915 55.50657428 196.25679915 70.29833984 222.03427124 C72.81171344 224.9376775 74.66870497 228.1116796 76.54296875 231.44921875 C77.16107422 232.50044922 77.77917969 233.55167969 78.41601562 234.63476562 C79.64004874 236.74409723 80.864002 238.85347518 82.08789062 240.96289062 C82.69181641 241.98962891 83.29574219 243.01636719 83.91796875 244.07421875 C84.70337036 245.42906372 84.70337036 245.42906372 85.50463867 246.8112793 C86.97139918 249.25111445 86.97139918 249.25111445 90 251 C93.67480584 249.69903526 93.67480584 249.69903526 97 248 C97 247.34 97 246.68 97 246 C97.99 245.67 98.98 245.34 100 245 C101.21770172 242.58305424 101.21770172 242.58305424 102.125 239.6875 C102.45757812 238.72199219 102.79015625 237.75648438 103.1328125 236.76171875 C103.41898438 235.85035156 103.70515625 234.93898438 104 234 C104.17917969 233.43079834 104.35835937 232.86159668 104.54296875 232.27514648 C106.69234743 221.57532813 104.73042364 209.6157017 103.40444946 198.88894653 C102.92216736 194.98176105 102.47031528 191.07108299 102.01953125 187.16015625 C101.88465553 185.9947657 101.88465553 185.9947657 101.74705505 184.80583191 C100.80241891 176.5055737 100.15844497 168.19076327 99.59619141 159.85595703 C99.52964355 158.88384277 99.4630957 157.91172852 99.39453125 156.91015625 C99.34143799 156.07621338 99.28834473 155.24227051 99.23364258 154.38305664 C99.04401427 151.99676813 99.04401427 151.99676813 98.50871277 149.67807007 C98.00271165 147.01427521 97.77254508 144.47391966 97.62695312 141.76782227 C97.57016891 140.74294205 97.5133847 139.71806183 97.45487976 138.66212463 C97.39758194 137.55803757 97.34028412 136.4539505 97.28125 135.31640625 C97.21867508 134.1599913 97.15610016 133.00357635 97.09162903 131.81211853 C96.89029613 128.06245205 96.69481543 124.31251033 96.5 120.5625 C96.43307953 119.29744629 96.36615906 118.03239258 96.29721069 116.72900391 C95.31536689 98.1580706 94.44047783 79.59254499 94 61 C82.02771077 60.64217317 73.65761892 65.03847104 65 73 Z M-64 87 C-63 89 -63 89 -63 89 Z M-63 89 C-61.76583013 95.82423338 -60.1084005 102.39367844 -58 109 C-57.34 109 -56.68 109 -56 109 C-55.85304688 109.75539063 -55.70609375 110.51078125 -55.5546875 111.2890625 C-53.79489899 119.92618543 -51.57699344 128.37207158 -49.19946289 136.85693359 C-47.3905359 143.37268747 -45.90991473 149.8524577 -44.73828125 156.515625 C-44.18823299 159.33642116 -44.18823299 159.33642116 -41 161 C-37.64336058 145.15769306 -35.55835499 128.69040146 -44.31274414 114.42675781 C-47.06053444 110.435883 -49.91094288 106.55737706 -52.91015625 102.75195312 C-55.7621186 98.99642513 -58.21416849 95.03270798 -60.66992188 91.01074219 C-61.10884766 90.34719727 -61.54777344 89.68365234 -62 89 C-62.33 89 -62.66 89 -63 89 Z M-90 156 C-90.31394896 158.77067573 -90.62617971 161.54152863 -90.9375 164.3125 C-91.02451172 165.07884766 -91.11152344 165.84519531 -91.20117188 166.63476562 C-91.37737916 168.20757878 -91.54894848 169.78091827 -91.71594238 171.35473633 C-91.88964811 172.97235687 -92.07152009 174.58915981 -92.26757812 176.20422363 C-93.30113972 185.67287177 -93.12544481 195.15724986 -93.09765625 204.66796875 C-93.09578786 206.55796776 -93.09436595 208.44796725 -93.09336853 210.33796692 C-93.08957647 215.27801891 -93.07977499 220.21804083 -93.06866455 225.15808105 C-93.05837872 230.21280511 -93.05385564 235.26753409 -93.04882812 240.32226562 C-93.0381493 250.21485686 -93.02111332 260.10742591 -93 270 C-91.41617173 269.54858838 -89.83416337 269.09078882 -88.25292969 268.63037109 C-87.37175476 268.37613373 -86.49057983 268.12189636 -85.58270264 267.85995483 C-81.80989274 266.60373352 -78.59829175 264.73820758 -75.25 262.625 C-74.62996094 262.25117188 -74.00992188 261.87734375 -73.37109375 261.4921875 C-68.23056197 258.33211322 -63.38840369 255.08260553 -60 250 C-60.22939989 247.19224953 -60.22939989 247.19224953 -61 244 C-61.25136719 242.73027344 -61.50273437 241.46054687 -61.76171875 240.15234375 C-63.2048962 233.43396667 -64.68360458 227.16576451 -67.8125 221 C-72.32012079 211.91680434 -74.46478658 202.04034923 -77.09570312 192.28955078 C-78.54373738 187.02205252 -80.1031534 181.79037109 -81.6875 176.5625 C-81.96070068 175.64678223 -82.23390137 174.73106445 -82.51538086 173.78759766 C-84.36194949 167.71783236 -86.55512559 161.8536919 -89 156 C-89.33 156 -89.66 156 -90 156 Z " fill="#FAA612" transform="translate(247,55)"/>
<path d="M0 0 C0 0.66 0 1.32 0 2 C0.89332031 2.21398437 1.78664062 2.42796875 2.70703125 2.6484375 C8.97794407 5.22226411 13.20814034 12.33623197 16.13671875 18.32421875 C16.82986704 20.19095145 17.41893497 22.09539795 18 24 C18.474375 25.0725 18.94875 26.145 19.4375 27.25 C25.37418969 40.95491131 25.37418969 40.95491131 25 48 C25.66 48 26.32 48 27 48 C36.66567291 81.3181431 36.66567291 81.3181431 39.45703125 95.61328125 C39.76382101 97.94136557 39.76382101 97.94136557 41 99 C42.12550137 94.92215064 42.22471618 90.9413442 42.31640625 86.734375 C42.3475779 85.54427826 42.3475779 85.54427826 42.37937927 84.33013916 C42.44459973 81.80351156 42.50363144 79.27678279 42.5625 76.75 C42.6057114 75.03384384 42.64932653 73.31769778 42.69335938 71.6015625 C42.80025283 67.40114454 42.90159729 63.20062511 43 59 C47.4979138 63.4088462 50.9357562 67.45896845 53.390625 73.3203125 C54.83989344 76.759729 56.62626269 79.84150154 58.625 83 C59.32109375 84.11375 60.0171875 85.2275 60.734375 86.375 C61.10111328 86.96023437 61.46785156 87.54546875 61.84570312 88.1484375 C63.88267557 91.41586538 65.88245067 94.70534852 67.875 98 C68.2560791 98.62261719 68.6371582 99.24523437 69.02978516 99.88671875 C70.59880063 102.48507038 72.00036268 105.00091048 73.125 107.82421875 C74.20577148 110.51167283 75.58846733 111.47269597 78 113 C78 120.60885378 73.50337076 125.20628962 69 131 C68.09662622 132.28640427 67.19942451 133.57719992 66.3125 134.875 C64 138 64 138 61.375 140.375 C58.61267287 143.42809841 57.89835758 145.87240937 56.96875 149.81640625 C56 152 56 152 53.70703125 153.8046875 C50.24403597 156.61306174 48.42683566 159.75594219 46.1875 163.5625 C40.73946272 172.54834309 34.8094118 180.98892729 28 189 C27.34 189.99 26.68 190.98 26 192 C22.46807504 188.84942805 21.64145963 185.19363649 20.4375 180.75 C20.22931641 180.01136719 20.02113281 179.27273438 19.80664062 178.51171875 C19.19663163 176.34322281 18.59663367 174.17220997 18 172 C16.91677398 168.07025145 15.80097921 164.30439859 14.1875 160.5625 C7.32450542 143.66897488 2.81588673 125.5255128 -2.13671875 108 C-2.90542921 105.32864418 -3.73395786 102.69512449 -4.625 100.0625 C-4.88539063 99.29035156 -5.14578125 98.51820313 -5.4140625 97.72265625 C-5.60742188 97.15417969 -5.80078125 96.58570313 -6 96 C-6.31442728 98.60394628 -6.62656411 101.20813628 -6.9375 103.8125 C-7.06801758 104.89047852 -7.06801758 104.89047852 -7.20117188 105.99023438 C-7.47895213 108.32564616 -7.74117827 110.66241387 -8 113 C-8.14332764 114.21973511 -8.14332764 114.21973511 -8.28955078 115.46411133 C-9.08050046 122.9097796 -9.08196228 130.31375529 -9.01803589 137.79138184 C-8.89346609 153.4774806 -9.07184924 169.15656226 -9.37231445 184.83981323 C-9.4158035 187.11494596 -9.45746751 189.39011429 -9.49731445 191.66531372 C-9.5541114 194.86554707 -9.61768547 198.06556786 -9.68359375 201.265625 C-9.70030624 202.23678757 -9.71701874 203.20795013 -9.73423767 204.20854187 C-9.75418289 205.09137344 -9.77412811 205.97420502 -9.79467773 206.88378906 C-9.81022202 207.6582135 -9.8257663 208.43263794 -9.84178162 209.23052979 C-10 211 -10 211 -11 212 C-22.05360138 213.09255092 -33.93103651 213.41733651 -43.08984375 206.3984375 C-44.96742658 204.82630272 -44.96742658 204.82630272 -47.5625 204.4375 C-51.09983651 202.35137847 -51.38003974 199.73869072 -52.421875 195.8984375 C-54.03745786 187.79869099 -54.04922932 180.16848804 -53.75805664 171.92089844 C-53.68838143 169.9005584 -53.63355607 167.8802006 -53.58007812 165.859375 C-53.13787847 152.36898561 -51.16747087 139.96870842 -47.53869629 126.98028564 C-46.0187626 121.39290196 -44.721249 115.74578761 -43.39013672 110.11108398 C-42.87414857 107.93390745 -42.34923093 105.75899994 -41.82421875 103.58398438 C-38.87213482 91.21029838 -36.61326174 78.96123184 -36.75 66.1875 C-36.75604248 65.25172119 -36.76208496 64.31594238 -36.76831055 63.35180664 C-37.00648653 46.39800685 -39.97997843 30.33512141 -45.4621582 14.29077148 C-47.10728922 9.32186766 -47.10728922 9.32186766 -46 6 C-34.1144234 -2.64405571 -13.57041414 -5.15798546 0 0 Z " fill="#37418F" transform="translate(164,116)"/>
<path d="M0 0 C13.75689746 0.7467773 13.75689746 0.7467773 19.5625 3.1875 C20.61953125 3.62835938 21.6765625 4.06921875 22.765625 4.5234375 C27.91751259 6.87538618 32.98450833 9.37025572 38 12 C38 11.01 38 10.02 38 9 C39.32 9.33 40.64 9.66 42 10 C43.10366553 16.1563843 43.07496229 22.13340312 43 28.375 C42.94373825 36.81426268 43.11710799 45.15003451 43.78125 53.5625 C44.03674198 57.46009829 43.98304855 61.3360665 43.9453125 65.2409668 C43.91457353 72.99102995 44.33402122 80.66108507 44.92597961 88.38572121 C45.10020518 90.66653712 45.26607463 92.94784146 45.43005371 95.22941589 C45.89678088 101.70480563 46.37689294 108.1791722 46.86376953 114.65307617 C52.6209895 191.46561165 52.6209895 191.46561165 38 218 C37.34 218 36.68 218 36 218 C36 218.66 36 219.32 36 220 C31.31362794 222.41877268 27.13091449 222.35076204 22 222 C21.17886719 221.95488281 20.35773438 221.90976562 19.51171875 221.86328125 C11.74421614 220.93311375 7.92256326 216.78652334 3 211 C1.7625 209.6078125 1.7625 209.6078125 0.5 208.1875 C-1 206 -1 206 -1.5 203.9375 C-1.87643743 201.78267009 -1.87643743 201.78267009 -4 200.0625 C-6 198 -6 198 -7 193 C-3.7 192.01 -0.4 191.02 3 190 C3 189.34 3 188.68 3 188 C5 186 5 186 7 185 C7.65352948 183.01703554 7.65352948 183.01703554 8.0625 180.6875 C9 176 9 176 9.51782227 174.30249023 C11.75066728 163.64023135 9.72754812 151.59243962 8.40444946 140.88894653 C7.92216736 136.98176105 7.47031528 133.07108299 7.01953125 129.16015625 C6.92961411 128.38322922 6.83969696 127.60630219 6.74705505 126.80583191 C5.80241891 118.5055737 5.15844497 110.19076327 4.59619141 101.85595703 C4.49636963 100.39778564 4.49636963 100.39778564 4.39453125 98.91015625 C4.34143799 98.07621338 4.28834473 97.24227051 4.23364258 96.38305664 C4.04370958 93.9963743 4.04370958 93.9963743 3.50970459 91.6750946 C3.00573493 89.03009875 2.76627443 86.50209259 2.61108398 83.81542969 C2.55111237 82.80011169 2.49114075 81.7847937 2.42935181 80.7387085 C2.36887665 79.64415344 2.30840149 78.54959839 2.24609375 77.421875 C2.18078461 76.27366272 2.11547546 75.12545044 2.04818726 73.94244385 C1.83911432 70.21190947 1.63739827 66.48103667 1.4375 62.75 C1.3689682 61.48978027 1.3004364 60.22956055 1.22982788 58.93115234 C0.17278963 39.26795086 -0.43786719 19.68830512 0 0 Z " fill="#F6D509" transform="translate(341,113)"/>
<path d="M0 0 C0.1333129 10.89602543 0.26381785 21.79208103 0.39115143 32.68817806 C0.45041719 37.75282833 0.51049778 42.81746561 0.57275391 47.88208008 C0.90848849 75.25607162 1.07200181 102.62394198 1 130 C-1.25373126 129.89554332 -3.50672285 129.77503944 -5.75927734 129.64770508 C-7.0139682 129.58231033 -8.26865906 129.51691559 -9.56137085 129.44953918 C-14.29332504 128.83092091 -16.55702955 127.18534832 -19.625 123.6875 C-20.33849609 122.95756836 -20.33849609 122.95756836 -21.06640625 122.21289062 C-22.40533979 120.83501303 -23.70402135 119.41835434 -25 118 C-26.07894531 116.93265625 -26.07894531 116.93265625 -27.1796875 115.84375 C-33.7572893 109.18145805 -35.33323253 101.52574261 -37.203125 92.6328125 C-37.80263856 89.19040024 -37.80263856 89.19040024 -39 87 C-39.32857597 82.71520298 -39.32494287 78.42081231 -39.375 74.125 C-39.41238281 72.94679688 -39.44976562 71.76859375 -39.48828125 70.5546875 C-39.60219286 59.06227151 -35.92576711 50.31477745 -29.625 40.875 C-29.24142334 40.29733887 -28.85784668 39.71967773 -28.46264648 39.12451172 C-27.31847599 37.40932352 -26.15975885 35.7046694 -25 34 C-24.31808594 32.97390625 -23.63617188 31.9478125 -22.93359375 30.890625 C-19.45585877 25.7502568 -19.45585877 25.7502568 -18 24 C-17.34 24 -16.68 24 -16 24 C-15.77183594 22.99453125 -15.54367188 21.9890625 -15.30859375 20.953125 C-14.05828172 16.58528035 -11.76381527 13.35175369 -9.0625 9.75 C-8.61970703 9.13898438 -8.17691406 8.52796875 -7.72070312 7.8984375 C-1.93483897 0 -1.93483897 0 0 0 Z " fill="#37418E" transform="translate(243,245)"/>
<path d="M0 0 C0.66386719 0.33773437 1.32773437 0.67546875 2.01171875 1.0234375 C2.89472656 1.46945313 3.77773438 1.91546875 4.6875 2.375 C5.55761719 2.81585938 6.42773438 3.25671875 7.32421875 3.7109375 C9.97548703 5.03180692 9.97548703 5.03180692 12.71459961 6.05126953 C15.47832688 7.19856621 16.68543505 8.56677628 18.5625 10.875 C20.3997964 13.09490042 22.12224598 15.11205882 24.25 17.0625 C26.64719314 19.71653526 27.76715956 22.69895183 29 26 C29.24621094 26.63164063 29.49242187 27.26328125 29.74609375 27.9140625 C30.25896496 29.24805913 30.75581424 30.58830215 31.23828125 31.93359375 C31.73320065 33.27622126 32.27059377 34.60420253 32.85546875 35.91015625 C36.91737436 45.80747556 36.19481039 58.31652651 32.8515625 68.3125 C32 70 32 70 30 71 C29.16687139 73.01704822 28.40780825 75.06496533 27.6875 77.125 C25.98073218 81.7247643 24.29763327 85.4334144 21.25390625 89.25 C19.68133944 91.44473499 18.59582894 93.75040424 17.4375 96.1875 C16.0923367 98.99132476 15.18007287 100.82538388 12.9375 103 C10.24328148 105.7811288 9.35665093 108.92580303 8.0078125 112.515625 C6.69440362 115.75333061 5.16294231 118.26027307 3 121 C2.34 121 1.68 121 1 121 C0.82375576 111.70849999 0.65789545 102.41682874 0.5 93.125 C0.48812275 92.42638226 0.4762455 91.72776451 0.46400833 91.00797653 C-0.04770307 60.67003627 -0.1148368 30.3421741 0 0 Z " fill="#F6D409" transform="translate(260,68)"/>
<path d="M0 0 C0.66 0 1.32 0 2 0 C1.99476318 0.86783615 1.98952637 1.7356723 1.98413086 2.62980652 C1.84823099 29.16178237 2.30374648 55.66436474 2.92712402 82.18829346 C3.05086979 87.49329737 3.16972034 92.79841114 3.2890625 98.10351562 C3.52142643 108.4024526 3.75892956 118.70126338 4 129 C0.96765082 126.04160096 -1.40064051 123.1391284 -3.6875 119.5625 C-4.28949219 118.63566406 -4.89148438 117.70882812 -5.51171875 116.75390625 C-6.95169857 114.08937667 -7.59420603 111.98123306 -8 109 C-9.485 108.505 -9.485 108.505 -11 108 C-11.144375 107.401875 -11.28875 106.80375 -11.4375 106.1875 C-11.8365381 103.86670314 -11.8365381 103.86670314 -13.75 102.25 C-18.88492515 97.11507485 -21.73086105 90.80741686 -24 84 C-24.66 84 -25.32 84 -26 84 C-27.59586246 81.79973441 -29.06166598 79.61245584 -30.5 77.3125 C-31.10521484 76.37374023 -31.10521484 76.37374023 -31.72265625 75.41601562 C-37.67469913 66.03614607 -37.67469913 66.03614607 -36.5 60.75 C-35.15916827 55.49252823 -32.42587758 51.17063358 -29 47 C-28.01 46.505 -28.01 46.505 -27 46 C-25.68139364 43.03537822 -24.56008492 40.01557973 -23.4140625 36.98046875 C-21.96226537 33.92046541 -20.43074703 32.30332884 -18 30 C-16.94647157 27.69034152 -15.94280904 25.3570226 -15 23 C-14.34 22.01 -13.68 21.02 -13 20 C-12.34 20 -11.68 20 -11 20 C-10.9278125 19.32453125 -10.855625 18.6490625 -10.78125 17.953125 C-9.73924092 14.01433067 -7.75150014 11.10982374 -5.5 7.75 C-5.08363281 7.11320313 -4.66726563 6.47640625 -4.23828125 5.8203125 C-1.2019604 1.2019604 -1.2019604 1.2019604 0 0 Z " fill="#F6D409" transform="translate(302,134)"/>
<path d="M0 0 C2.54034013 3.14518301 4.21311287 6.38040811 6 10 C7.89884508 13.45957986 9.85534096 16.88565276 11.8125 20.3125 C12.57530273 21.66118164 12.57530273 21.66118164 13.35351562 23.03710938 C16.29060406 28.18538986 19.36565627 33.16694558 22.74023438 38.04077148 C24.57512301 40.89445003 25.7305806 43.85667577 27 47 C28.33760192 49.45227018 29.48337996 51.50490579 31.5 53.4375 C37.50520311 59.6929199 37.18032961 68.5081143 37.1875 76.625 C37.19974609 77.36234375 37.21199219 78.0996875 37.22460938 78.859375 C37.23580826 83.02536049 36.87155235 86.25689529 35 90 C34.34 90 33.68 90 33 90 C33 90.66 33 91.32 33 92 C29.10543217 96.89961759 25.02449457 98.89827821 19 100 C14.65267845 100.22494577 10.34812941 100.18145208 6 100 C5.51218011 98.50279178 5.03527637 97.00202636 4.5625 95.5 C4.29566406 94.6646875 4.02882813 93.829375 3.75390625 92.96875 C2.12823768 86.56715356 1.79661196 80.01093442 1.5 73.4375 C1.46011963 72.57181396 1.42023926 71.70612793 1.37915039 70.81420898 C0.36634552 47.23540078 -0.24109015 23.60004659 0 0 Z " fill="#F6D509" transform="translate(261,269)"/>
<path d="M0 0 C0.9294105 2.78823151 1.12859471 4.46251311 1.1328125 7.34204102 C1.13482666 8.22584946 1.13684082 9.1096579 1.13891602 10.02024841 C1.13432373 10.9842305 1.12973145 11.94821259 1.125 12.94140625 C1.12234131 13.95433243 1.11968262 14.96725861 1.11694336 16.01087952 C1.04107235 28.66255107 0.51686558 41.29770837 0 53.9375 C-0.09676657 56.38605144 -0.19312278 58.83461914 -0.2890625 61.28320312 C-0.5213336 67.18899695 -0.75858395 73.09457328 -1 79 C-1.66 79 -2.32 79 -3 79 C-3.37125 78.030625 -3.7425 77.06125 -4.125 76.0625 C-5.84591439 71.98883792 -8.2465988 68.51758174 -10.79296875 64.91796875 C-12 63 -12 63 -12 61 C-12.99 60.67 -13.98 60.34 -15 60 C-16.50375423 55.73936301 -17.34679993 51.4635338 -18 47 C-18.66 47 -19.32 47 -20 47 C-23.17747907 35.48163836 -23.31212338 23.82865527 -18.625 12.75 C-17.00702042 10.01188072 -15.31032475 8.16127154 -13 6 C-12.34 5.01 -11.68 4.02 -11 3 C-9.16015625 2.05078125 -9.16015625 2.05078125 -7.0625 1.3125 C-6.37285156 1.06113281 -5.68320313 0.80976562 -4.97265625 0.55078125 C-3 0 -3 0 0 0 Z " fill="#3A438C" transform="translate(245,67)"/>
<path d="M0 0 C0.66 0.33 1.32 0.66 2 1 C1.67 1.66 1.34 2.32 1 3 C0.34 3 -0.32 3 -1 3 C-1 3.99 -1 4.98 -1 6 C-6.1974738 10.87645336 -15.90216619 15 -23 15 C-23 14.34 -23 13.68 -23 13 C-22.01 12.48050781 -21.02 11.96101563 -20 11.42578125 C-18.6663002 10.72204825 -17.33299187 10.01757303 -16 9.3125 C-14.97193237 8.76928101 -14.97193237 8.76928101 -13.9230957 8.21508789 C-10.24459505 6.2544126 -6.67476709 4.22783868 -3.1875 1.9375 C-2.135625 1.298125 -1.08375 0.65875 0 0 Z " fill="#F9BD0D" transform="translate(365,345)"/>
<path d="M0 0 C0.33 0 0.66 0 1 0 C1.40236151 5.36482009 -0.0054384 9.15311198 -2 14 C-3.0394775 17.1184325 -3.11494838 19.27475586 -3.09765625 22.54296875 C-3.09443359 23.61611328 -3.09121094 24.68925781 -3.08789062 25.79492188 C-3.07951172 26.91447266 -3.07113281 28.03402344 -3.0625 29.1875 C-3.05798828 30.31865234 -3.05347656 31.44980469 -3.04882812 32.61523438 C-3.03703498 35.41020927 -3.0205765 38.2050782 -3 41 C-6.71415885 37.28584115 -5.41359454 31.13983408 -5.4375 26.125 C-5.47037109 24.94679688 -5.50324219 23.76859375 -5.53710938 22.5546875 C-5.58883622 14.01505489 -3.85435816 7.60749251 0 0 Z " fill="#58527A" transform="translate(209,293)"/>
<path d="M0 0 C2.77825359 0.95835228 4.01167293 1.51167293 6.125 3.625 C5.26777344 3.46386719 4.41054687 3.30273438 3.52734375 3.13671875 C-7.32871347 1.5039478 -18.12554612 2.93881116 -28.875 4.625 C-28.545 3.965 -28.215 3.305 -27.875 2.625 C-25.75106196 2.02105027 -23.59884773 1.51465489 -21.4375 1.0625 C-6.54311561 -2.09295136 -6.54311561 -2.09295136 0 0 Z " fill="#B28140" transform="translate(157.875,112.375)"/>
<path d="M0 0 C0 0.99 0 1.98 0 3 C-1.27875 3.0825 -2.5575 3.165 -3.875 3.25 C-6.04634555 3.30367785 -6.04634555 3.30367785 -8 4 C-9.08769963 5.8412784 -9.08769963 5.8412784 -10 8 C-11.7265625 9.921875 -11.7265625 9.921875 -13.625 11.75 C-14.57246094 12.67039062 -14.57246094 12.67039062 -15.5390625 13.609375 C-16.02117187 14.06828125 -16.50328125 14.5271875 -17 15 C-17.64453125 13.16015625 -17.64453125 13.16015625 -18 11 C-15.6875 8.4375 -15.6875 8.4375 -13 6 C-12.34 5.01 -11.68 4.02 -11 3 C-9.16015625 2.05078125 -9.16015625 2.05078125 -7.0625 1.3125 C-6.37285156 1.06113281 -5.68320313 0.80976562 -4.97265625 0.55078125 C-3 0 -3 0 0 0 Z " fill="#5F5675" transform="translate(245,67)"/>
<path d="M0 0 C2.26536319 0.52277612 4.33568882 1.13427553 6.5 2 C11.1341802 3.32405149 15.57766604 3.46075461 20.375 3.625 C21.30183594 3.66367187 22.22867188 3.70234375 23.18359375 3.7421875 C25.4555377 3.83587591 27.72748596 3.92159348 30 4 C30 4.66 30 5.32 30 6 C9.81692732 6.39190432 9.81692732 6.39190432 3 4 C0.9375 1.875 0.9375 1.875 0 0 Z " fill="#A3794A" transform="translate(123,324)"/>
<path d="M0 0 C1.69752187 0.25245197 3.38471545 0.57645775 5.0625 0.9375 C5.98160156 1.13214844 6.90070313 1.32679687 7.84765625 1.52734375 C8.91306641 1.76130859 8.91306641 1.76130859 10 2 C10 2.66 10 3.32 10 4 C11.32 4.66 12.64 5.32 14 6 C9.97007218 5.44687265 5.97977076 4.8441938 2 4 C2.061875 5.918125 2.061875 5.918125 2.125 7.875 C2.1953125 10.0546875 2.1953125 10.0546875 2 12 C1.34 12.66 0.68 13.32 0 14 C-0.19393875 11.85473901 -0.37998676 9.70876323 -0.5625 7.5625 C-0.71912109 5.77005859 -0.71912109 5.77005859 -0.87890625 3.94140625 C-0.91886719 2.97074219 -0.95882813 2.00007813 -1 1 C-0.67 0.67 -0.34 0.34 0 0 Z " fill="#FAB50F" transform="translate(259,56)"/>
<path d="M0 0 C0.33 0.66 0.66 1.32 1 2 C-1.13326561 5.98209581 -4.22590843 7.55220258 -8.23828125 9.25 C-13.41689389 10.65635591 -18.68325332 10.29583135 -24 10 C-24 9.34 -24 8.68 -24 8 C-23.24976563 7.97421875 -22.49953125 7.9484375 -21.7265625 7.921875 C-14.64791821 7.52960756 -8.2238968 6.59547823 -2 3 C-1.34 2.01 -0.68 1.02 0 0 Z " fill="#F9BE0D" transform="translate(292,361)"/>
<path d="M0 0 C3.875 1.875 3.875 1.875 5 3 C7.34723966 3.397493 9.70328548 3.74368723 12.0625 4.0625 C13.35285156 4.23910156 14.64320313 4.41570312 15.97265625 4.59765625 C17.47119141 4.79681641 17.47119141 4.79681641 19 5 C19 5.66 19 6.32 19 7 C12.28912553 7.49506451 6.49908699 7.29302091 1 3 C0.67 2.01 0.34 1.02 0 0 Z " fill="#CE8F2E" transform="translate(225,370)"/>
<path d="M0 0 C1.0725 0.165 2.145 0.33 3.25 0.5 C8.82258642 1.21160726 14.39263574 1.08411046 20 1 C16.88542423 4.11457577 14.50666961 3.96731164 10.125 4.25 C6.1509372 4.22023174 3.4260293 3.05561758 0 1 C0 0.67 0 0.34 0 0 Z " fill="#F9BD0D" transform="translate(355,333)"/>
<path d="M0 0 C0 0.66 0 1.32 0 2 C-2.28977245 2.52909886 -4.58189188 3.04805019 -6.875 3.5625 C-8.78925781 3.99755859 -8.78925781 3.99755859 -10.7421875 4.44140625 C-14 5 -14 5 -16 4 C-16 3.34 -16 2.68 -16 2 C-13.70858188 1.66496236 -11.41685737 1.33201958 -9.125 1 C-7.21074219 0.7215625 -7.21074219 0.7215625 -5.2578125 0.4375 C-2 0 -2 0 0 0 Z " fill="#F9B80E" transform="translate(291,377)"/>
<path d="M0 0 C0.69480469 0.14308594 1.38960937 0.28617187 2.10546875 0.43359375 C5.16693345 1.03266579 8.23455833 1.55514698 11.3125 2.0625 C12.38113281 2.23910156 13.44976562 2.41570312 14.55078125 2.59765625 C15.35902344 2.73042969 16.16726562 2.86320312 17 3 C17 3.66 17 4.32 17 5 C14.72843079 4.93998496 12.45760726 4.85120032 10.1875 4.75 C8.92292969 4.70359375 7.65835938 4.6571875 6.35546875 4.609375 C3 4 3 4 1.05078125 1.953125 C0.70402344 1.30859375 0.35726562 0.6640625 0 0 Z " fill="#736068" transform="translate(227,370)"/>
<path d="M0 0 C0 0.99 0 1.98 0 3 C-1.06541016 3.18175781 -1.06541016 3.18175781 -2.15234375 3.3671875 C-3.07144531 3.53476563 -3.99054688 3.70234375 -4.9375 3.875 C-5.85402344 4.03742188 -6.77054688 4.19984375 -7.71484375 4.3671875 C-8.46894531 4.57601562 -9.22304687 4.78484375 -10 5 C-10.33 5.66 -10.66 6.32 -11 7 C-11.66 6.67 -12.32 6.34 -13 6 C-10.90471952 2.85707928 -10.41216767 2.49143331 -7.0625 1.3125 C-6.37285156 1.06113281 -5.68320313 0.80976562 -4.97265625 0.55078125 C-3 0 -3 0 0 0 Z " fill="#896C5A" transform="translate(245,67)"/>
<path d="M0 0 C0.33 0 0.66 0 1 0 C1 1.98 1 3.96 1 6 C0.01 6.33 -0.98 6.66 -2 7 C-2.80563638 9.10584438 -2.80563638 9.10584438 -3.1875 11.5625 C-3.34605469 12.38878906 -3.50460938 13.21507812 -3.66796875 14.06640625 C-3.77753906 14.70449219 -3.88710937 15.34257812 -4 16 C-5.16161779 13.13421241 -4.9946154 11.98369837 -4.00390625 8.984375 C-3.52824219 7.91703125 -3.05257812 6.8496875 -2.5625 5.75 C-2.08941406 4.67234375 -1.61632812 3.5946875 -1.12890625 2.484375 C-0.75636719 1.66453125 -0.38382813 0.8446875 0 0 Z " fill="#876A5C" transform="translate(209,293)"/>
<path d="M0 0 C1.890625 0.6796875 1.890625 0.6796875 4 2 C5.046875 4.3828125 5.046875 4.3828125 5.75 7.125 C5.99234375 8.03507813 6.2346875 8.94515625 6.484375 9.8828125 C6.73960937 10.93082031 6.73960937 10.93082031 7 12 C3.58723725 9.82119072 2.37325963 8.18774573 1.25 4.3125 C1.00765625 3.50425781 0.7653125 2.69601563 0.515625 1.86328125 C0.34546875 1.24839844 0.1753125 0.63351563 0 0 Z " fill="#A77B47" transform="translate(233,216)"/>
<path d="M0 0 C0.99 0.33 1.98 0.66 3 1 C3 1.99 3 2.98 3 4 C3.66 4 4.32 4 5 4 C5.66 5.65 6.32 7.3 7 9 C3.46352496 7.32482761 2.2088437 6.50719183 0.6875 2.8125 C0.460625 1.884375 0.23375 0.95625 0 0 Z " fill="#746168" transform="translate(213,355)"/>
<path d="M0 0 C3.91593446 0.78318689 7.36406635 2.39179858 11 4 C9 5 9 5 5.5 4.25 C2 3 2 3 0 0 Z " fill="#B8843D" transform="translate(123,324)"/>
<path d="M0 0 C0.33 1.32 0.66 2.64 1 4 C-1.31 5.65 -3.62 7.3 -6 9 C-4.47291037 5.56404834 -2.40072955 2.88087546 0 0 Z " fill="#947153" transform="translate(220,263)"/>
<path d="M0 0 C3.35111834 2.23407889 4.81553956 3.26215824 5.8125 7.25 C5.874375 8.1575 5.93625 9.065 6 10 C4.5 8.625 4.5 8.625 3 7 C3 6.34 3 5.68 3 5 C2.01 4.67 1.02 4.34 0 4 C0 2.68 0 1.36 0 0 Z " fill="#876A5C" transform="translate(230,123)"/>
<path d="M0 0 C0.53625 0.2475 1.0725 0.495 1.625 0.75 C-3.79038462 4.81153846 -3.79038462 4.81153846 -6.75 4.5 C-7.28625 4.2525 -7.8225 4.005 -8.375 3.75 C-2.95961538 -0.31153846 -2.95961538 -0.31153846 0 0 Z " fill="#917055" transform="translate(125.375,119.25)"/>
<path d="M0 0 C4.51478398 0.53115106 7.34666857 2.36620292 11 5 C10.01 5.495 10.01 5.495 9 6 C7.08984375 5.29296875 7.08984375 5.29296875 4.9375 4.1875 C4.22464844 3.83042969 3.51179688 3.47335938 2.77734375 3.10546875 C1 2 1 2 0 0 Z " fill="#F9BE0D" transform="translate(261,68)"/>
<path d="M0 0 C0.8125 1.6875 0.8125 1.6875 1 4 C-1.4375 6.75 -1.4375 6.75 -4 9 C-4 5.00095031 -2.27413033 3.19799578 0 0 Z " fill="#997450" transform="translate(228,262)"/>
<path d="M0 0 C0.33 1.32 0.66 2.64 1 4 C0.01 4.66 -0.98 5.32 -2 6 C-2.33 6.99 -2.66 7.98 -3 9 C-3.66 9 -4.32 9 -5 9 C-3.7508258 5.54074837 -2.32472205 2.85306797 0 0 Z " fill="#9A744F" transform="translate(226,254)"/>
</svg>
